# xmcd
#
# Track frame offsets:
#	150
#	8888
#	23919
#	39452
#	55177
#	70424
#	82748
#	100820
#	114162
#	131517
#	144981
#	155414
#	165810
#	173620
#	195158
#	209317
#	223665
#	236318
#	251915
#	265655
#	283580
#
# Disc length: 3966 seconds
#
# Revision: 0
# Processed by: cddbd v1.5.2PL0 Copyright (c) Steve Scherf et al.
# Submitted via: EasyCDDAExtractor 16.0.1.1
#
DISCID=0c0f7c15
DTITLE=Gail Davies - The Game -79 and I'll Be The First -80
DYEAR=1979
DGENRE=Country
TTITLE0=Blues Heartache
TTITLE1=The Game
TTITLE2=Good Lovin' Man
TTITLE3=Careless Love
TTITLE4=Love Is Living Around Us
TTITLE5=Sorry That You're Leavin'
TTITLE6=Never Seen A Man Like You
TTITLE7=Drown In The Flood
TTITLE8=Like Strangers
TTITLE9=When I Had You In My Arms
TTITLE10=I'll Be There
TTITLE11=It's A Lovely Lovely World
TTITLE12=Mama's Gonna Give You Sweet Things
TTITLE13=Kentucky
TTITLE14=Honky Tonk Waltz
TTITLE15=Farewell Song
TTITLE16=Object Of My Affection
TTITLE17=Get That Feelin' Inside
TTITLE18=I'm Hungry  I'm Tired
TTITLE19=Grandma's Song
TTITLE20=No One To Welcome Me Home
EXTD=
EXTT0=
EXTT1=
EXTT2=
EXTT3=
EXTT4=
EXTT5=
EXTT6=
EXTT7=
EXTT8=
EXTT9=
EXTT10=
EXTT11=
EXTT12=
EXTT13=
EXTT14=
EXTT15=
EXTT16=
EXTT17=
EXTT18=
EXTT19=
EXTT20=
PLAYORDER=
